<svg xmlns="http://www.w3.org/2000/svg" width="120" height="27.001" viewBox="0 0 120 27.001">
  <g id="logo" transform="translate(-1.753 -7.458)">
    <path id="パス_15" data-name="パス 15" d="M18.96,28.258V15.976c0-.608.059-3.244.059-5.185H18.96L13.108,28.257H10.327L4.476,10.82H4.418c0,1.912.058,4.548.058,5.156V28.258H1.753V7.458H5.779l5.939,17.584h.058l5.91-17.584h4v20.8H18.96Z" fill="#2b3137"/>
    <path id="パス_16" data-name="パス 16" d="M36.286,13.108H39.1c-1.767,4.953-3.505,9.908-5.446,14.861-2.405,6.143-2.665,6.49-5.939,6.49a3.8,3.8,0,0,1-1.072-.232V31.91a4.491,4.491,0,0,0,1.536.26c1.333,0,1.477-.377,2.694-3.506L25.248,13.108h2.9l4.027,12.341h.058Z" transform="translate(0.802)" fill="#2b3137"/>
    <path id="パス_17" data-name="パス 17" d="M58.305,28.258H55.35l-5.417-20.8h3.042l3.882,16.918h.058L61.579,7.458h3.07l4.665,16.918h.058L73.254,7.458h3.1l-5.476,20.8H67.923L63.172,11.021h-.058Z" transform="translate(1.875)" fill="#2b3137"/>
    <path id="パス_18" data-name="パス 18" d="M84.872,12.673c4.838,0,7.04,4.084,7.04,7.995s-2.2,8-7.04,8-7.04-4.084-7.04-8S80.034,12.673,84.872,12.673Zm0,13.79c3.65,0,4.4-3.766,4.4-5.8s-.753-5.793-4.4-5.793-4.4,3.766-4.4,5.793S81.222,26.463,84.872,26.463Z" transform="translate(2.604)" fill="#2b3137"/>
    <path id="パス_19" data-name="パス 19" d="M97.707,28.258H95.158V13.108h2.4v2.521h.058c1.014-1.769,2.346-2.956,4.259-2.956a2,2,0,0,1,.666.088V15.4h-.956a3.852,3.852,0,0,0-3.882,4.057Z" transform="translate(3.506)" fill="#2b3137"/>
    <path id="パス_20" data-name="パス 20" d="M118.247,28.258h-3.273l-4.723-7.646-2.114,1.912v5.734h-2.463V7.458h2.463V19.51l6.519-6.4H117.9l-5.794,5.65Z" transform="translate(3.506)" fill="#2b3137"/>
  </g>
</svg>
